<svg width="76" height="76" viewBox="0 0 76 76" fill="none" xmlns="http://www.w3.org/2000/svg">
<path fill-rule="evenodd" clip-rule="evenodd" d="M38 0C58.9847 0 75.9999 17.0106 75.9999 38C75.9999 58.9847 58.9894 75.9999 38 75.9999C17.0152 75.9999 0 58.9894 0 38C0 17.3433 16.4837 0.536057 37.0157 0.0138635V3.95111V0.0138635H37.1358C37.4223 0.00924236 37.7088 0.00462118 38 0.00462118V0ZM37.0203 3.95111C18.6603 4.46868 3.93725 19.5152 3.93725 38C3.93725 56.8128 19.1871 72.0627 38 72.0627C56.8128 72.0627 72.0627 56.8128 72.0627 38C72.0627 19.1871 56.8128 3.93725 38 3.93725C37.6903 3.93725 37.3853 3.94187 37.0757 3.95111H37.0157H37.0203Z" fill="white"/>
<path fill-rule="evenodd" clip-rule="evenodd" d="M56.1566 47.5057C55.9117 50.0474 55.5004 52.1038 54.9227 53.6658C54.5438 54.6732 53.0743 55.5743 50.5141 56.3738C47.7275 57.2241 44.5205 57.6538 40.8882 57.6538C34.8945 57.6538 29.8944 55.8654 25.9063 52.2933C21.8582 48.6656 19.8341 44.0075 19.8341 38.3373C19.8341 32.547 21.9275 27.7363 26.1143 23.8915C30.144 20.1853 35.0147 18.3368 40.7172 18.3368C44.7654 18.3368 48.1712 18.8267 50.9162 19.8017C53.3608 20.6613 54.6316 21.4654 54.7286 22.2094C54.932 23.6651 55.0429 26.0219 55.0429 29.289C55.0429 29.8251 54.5623 30.1393 53.5964 30.2364C52.8524 30.3149 52.3949 30.0793 52.2286 29.5432C51.2119 26.276 49.8625 24.0163 48.1712 22.7547C46.4798 21.4931 43.9382 20.8554 40.5509 20.8554C36.3179 20.8554 32.852 22.2648 30.1855 25.0699C27.2788 28.1199 25.8232 32.3067 25.8232 37.6164C25.8232 42.8892 27.3481 47.1545 30.412 50.3986C33.3926 53.5872 37.2005 55.1815 41.8448 55.1815C44.867 55.1815 47.2423 54.5345 48.9845 53.236C50.6481 52.0021 52.0068 49.9688 53.0511 47.1545C53.3561 46.3319 54.0401 46.0408 55.103 46.2626C55.8654 46.4382 56.2167 46.8495 56.1612 47.4965L56.1566 47.5057Z" fill="white"/>
<path fill-rule="evenodd" clip-rule="evenodd" d="M38.439 13.48C38.439 13.9606 38.9473 14.3534 39.9732 14.6538C42.2699 15.3285 43.4252 16.2296 43.4252 17.3341V58.1761C43.4252 59.9737 42.367 61.0643 40.2459 61.4433C39.2015 61.6281 38.67 62.0024 38.67 62.557C38.67 63.0283 38.7625 63.3241 38.9427 63.4396C39.1229 63.5505 39.6174 63.5921 40.4215 63.5551C45.4585 63.3426 49.3634 63.3472 52.1084 63.5551C52.8108 63.6106 53.2314 63.4812 53.3423 63.1531C53.3885 63.0191 53.4024 62.8111 53.4024 62.5477C53.4024 62.1549 52.9726 61.873 52.113 61.6789C50.5095 61.3139 49.576 61.0551 49.3357 60.9072C48.7165 60.5283 48.4161 59.7427 48.4161 58.5596V17.4727C48.4161 15.8877 49.4928 14.9126 51.6417 14.5475C52.5382 14.395 52.9911 14.127 52.9911 13.725C52.9911 13.175 52.9218 12.8469 52.7739 12.7175C52.626 12.5882 52.2933 12.565 51.7572 12.6205C48.0325 13.0133 44.1877 12.981 40.2181 12.5235C39.4649 12.4357 39.0351 12.4033 38.8965 12.4449C38.5915 12.5373 38.439 12.8839 38.439 13.48Z" fill="white"/>
<path fill-rule="evenodd" clip-rule="evenodd" d="M24.6725 13.48C24.6725 13.9606 25.1808 14.3534 26.2067 14.6538C28.5035 15.3285 29.6588 16.2296 29.6588 17.3341V58.1761C29.6588 59.9737 28.6005 61.0643 26.4794 61.4433C25.435 61.6281 24.9036 62.0024 24.9036 62.557C24.9036 63.0283 24.996 63.3241 25.1762 63.4396C25.3564 63.5505 25.8509 63.5921 26.655 63.5551C31.6921 63.3426 35.597 63.3472 38.3419 63.5551C39.0444 63.6106 39.4649 63.4812 39.5758 63.1531C39.622 63.0191 39.6359 62.8111 39.6359 62.5477C39.6359 62.1549 39.2061 61.873 38.3466 61.6789C36.743 61.3139 35.8095 61.0551 35.5692 60.9072C34.95 60.5283 34.6496 59.7427 34.6496 58.5596V17.4727C34.6496 15.8877 35.7264 14.9126 37.8752 14.5475C38.7717 14.395 39.2246 14.127 39.2246 13.725C39.2246 13.175 39.1553 12.8469 39.0074 12.7175C38.8595 12.5882 38.5268 12.565 37.9907 12.6205C34.2661 13.0133 30.4212 12.981 26.4517 12.5235C25.6984 12.4357 25.2686 12.4033 25.13 12.4449C24.825 12.5373 24.6725 12.8839 24.6725 13.48Z" fill="white"/>
<path d="M64.7427 3.9788C64.7473 6.01674 66.3324 7.58332 68.2502 7.58332C70.1864 7.58332 71.7576 6.01674 71.7576 3.9788C71.7576 1.95472 70.1864 0.38814 68.2502 0.38814C66.3324 0.38814 64.7473 1.95472 64.7427 3.9788ZM65.3481 3.9788C65.3481 2.29207 66.6605 0.988894 68.2548 0.988894C69.8583 0.988894 71.1615 2.28744 71.1615 3.9788C71.1615 5.68401 69.863 6.98256 68.2548 6.98256C66.6605 6.98256 65.3481 5.68401 65.3481 3.9788ZM68.3241 4.33925C68.8417 4.33925 69.0358 4.56569 69.0312 5.00932V5.27273C69.0358 5.41136 69.0358 5.80416 69.1005 5.95666H69.863V5.88734C69.8121 5.73947 69.7844 5.52689 69.7798 5.27273V5.00932C69.7844 4.55182 69.6412 4.17751 69.2484 3.97418C69.6042 3.78009 69.7983 3.51206 69.7936 3.14698C69.7983 2.32441 69.1744 1.88078 68.1855 1.88078H66.7991V5.95666H67.5478V4.33463H68.3195L68.3241 4.33925ZM67.5524 3.6969V2.52313H68.1901C68.8324 2.52313 69.0635 2.67562 69.0635 3.13774C69.0681 3.50744 68.6568 3.6969 68.204 3.6969H67.557H67.5524Z" fill="white"/>
</svg>
