<svg width="76" height="76" viewBox="0 0 76 76" fill="none" xmlns="http://www.w3.org/2000/svg">
<path fill-rule="evenodd" clip-rule="evenodd" d="M38 0C58.9848 0 76 17.0106 76 38C76 58.9848 58.9894 76 38 76C17.0152 76 0 58.9894 0 38C0 17.3433 16.4838 0.536057 37.0157 0.0138635V3.95111V0.0138635H37.1358C37.4223 0.00924237 37.7089 0.00462118 38 0.00462118V0ZM37.0203 3.95111C18.6603 4.46868 3.93725 19.5153 3.93725 38C3.93725 56.8128 19.1872 72.0627 38 72.0627C56.8128 72.0627 72.0627 56.8128 72.0627 38C72.0627 19.1872 56.8128 3.93725 38 3.93725C37.6904 3.93725 37.3854 3.94187 37.0758 3.95111H37.0157H37.0203Z" fill="#CC9933"/>
<path fill-rule="evenodd" clip-rule="evenodd" d="M56.1566 47.5058C55.9117 50.0474 55.5004 52.1038 54.9228 53.6658C54.5438 54.6732 53.0743 55.5743 50.5142 56.3738C47.7276 57.2241 44.5205 57.6539 40.8882 57.6539C34.8946 57.6539 29.8944 55.8655 25.9064 52.2933C21.8582 48.6657 19.8341 44.0075 19.8341 38.3373C19.8341 32.547 21.9275 27.7363 26.1143 23.8915C30.144 20.1853 35.0147 18.3368 40.7173 18.3368C44.7654 18.3368 48.1712 18.8267 50.9162 19.8018C53.3608 20.6613 54.6316 21.4654 54.7287 22.2094C54.932 23.6651 55.0429 26.0219 55.0429 29.2891C55.0429 29.8251 54.5623 30.1394 53.5965 30.2364C52.8525 30.315 52.395 30.0793 52.2286 29.5432C51.212 26.276 49.8626 24.0163 48.1712 22.7547C46.4799 21.4931 43.9382 20.8554 40.5509 20.8554C36.3179 20.8554 32.852 22.2649 30.1856 25.0699C27.2788 28.1199 25.8232 32.3067 25.8232 37.6164C25.8232 42.8892 27.3482 47.1545 30.412 50.3986C33.3927 53.5872 37.2005 55.1815 41.8448 55.1815C44.8671 55.1815 47.2424 54.5346 48.9845 53.236C50.6482 52.0022 52.0068 49.9689 53.0512 47.1545C53.3562 46.332 54.0401 46.0408 55.103 46.2627C55.8655 46.4383 56.2167 46.8495 56.1612 47.4965L56.1566 47.5058Z" fill="#CC9933"/>
<path fill-rule="evenodd" clip-rule="evenodd" d="M38.439 13.48C38.439 13.9606 38.9473 14.3534 39.9732 14.6538C42.27 15.3285 43.4253 16.2296 43.4253 17.3341V58.1761C43.4253 59.9737 42.367 61.0643 40.2459 61.4432C39.2015 61.6281 38.6701 62.0024 38.6701 62.5569C38.6701 63.0283 38.7625 63.3241 38.9427 63.4396C39.1229 63.5505 39.6174 63.5921 40.4215 63.5551C45.4586 63.3426 49.3635 63.3472 52.1085 63.5551C52.8109 63.6106 53.2314 63.4812 53.3423 63.1531C53.3885 63.0191 53.4024 62.8111 53.4024 62.5477C53.4024 62.1549 52.9726 61.873 52.1131 61.6789C50.5095 61.3139 49.5761 61.0551 49.3358 60.9072C48.7165 60.5283 48.4161 59.7427 48.4161 58.5596V17.4727C48.4161 15.8876 49.4929 14.9126 51.6417 14.5475C52.5382 14.395 52.9911 14.127 52.9911 13.7249C52.9911 13.175 52.9218 12.8469 52.7739 12.7175C52.626 12.5881 52.2933 12.565 51.7573 12.6204C48.0326 13.0132 44.1878 12.9809 40.2182 12.5234C39.4649 12.4356 39.0351 12.4033 38.8965 12.4448C38.5915 12.5373 38.439 12.8839 38.439 13.48Z" fill="#CC9933"/>
<path fill-rule="evenodd" clip-rule="evenodd" d="M24.6725 13.48C24.6725 13.9606 25.1808 14.3534 26.2068 14.6538C28.5035 15.3285 29.6588 16.2296 29.6588 17.3341V58.1761C29.6588 59.9737 28.6005 61.0643 26.4794 61.4432C25.435 61.6281 24.9036 62.0024 24.9036 62.5569C24.9036 63.0283 24.996 63.3241 25.1762 63.4396C25.3565 63.5505 25.8509 63.5921 26.655 63.5551C31.6921 63.3426 35.597 63.3472 38.342 63.5551C39.0444 63.6106 39.4649 63.4812 39.5758 63.1531C39.622 63.0191 39.6359 62.8111 39.6359 62.5477C39.6359 62.1549 39.2061 61.873 38.3466 61.6789C36.743 61.3139 35.8096 61.0551 35.5693 60.9072C34.95 60.5283 34.6497 59.7427 34.6497 58.5596V17.4727C34.6497 15.8876 35.7264 14.9126 37.8752 14.5475C38.7717 14.395 39.2246 14.127 39.2246 13.7249C39.2246 13.175 39.1553 12.8469 39.0074 12.7175C38.8596 12.5881 38.5268 12.565 37.9908 12.6204C34.2661 13.0132 30.4213 12.9809 26.4517 12.5234C25.6984 12.4356 25.2687 12.4033 25.13 12.4448C24.825 12.5373 24.6725 12.8839 24.6725 13.48Z" fill="#CC9933"/>
<path d="M64.7428 3.97886C64.7474 6.0168 66.3324 7.58338 68.2502 7.58338C70.1865 7.58338 71.7577 6.0168 71.7577 3.97886C71.7577 1.95478 70.1865 0.388202 68.2502 0.388202C66.3324 0.388202 64.7474 1.95478 64.7428 3.97886ZM65.3481 3.97886C65.3481 2.29213 66.6605 0.988956 68.2548 0.988956C69.8584 0.988956 71.1616 2.28751 71.1616 3.97886C71.1616 5.68408 69.863 6.98263 68.2548 6.98263C66.6605 6.98263 65.3481 5.68408 65.3481 3.97886ZM68.3242 4.33931C68.8417 4.33931 69.0358 4.56575 69.0312 5.00939V5.27279C69.0358 5.41143 69.0358 5.80423 69.1005 5.95673H69.863V5.88741C69.8122 5.73953 69.7845 5.52696 69.7798 5.27279V5.00939C69.7845 4.55189 69.6412 4.17757 69.2484 3.97424C69.6042 3.78015 69.7983 3.51212 69.7937 3.14705C69.7983 2.32448 69.1745 1.88084 68.1855 1.88084H66.7992V5.95673H67.5478V4.33469H68.3195L68.3242 4.33931ZM67.5524 3.69697V2.52319H68.1902C68.8325 2.52319 69.0636 2.67569 69.0636 3.13781C69.0682 3.5075 68.6569 3.69697 68.204 3.69697H67.5571H67.5524Z" fill="#CC9933"/>
</svg>
